<svg class="svg-icon" style="width: 1em; height: 1em;vertical-align: middle;fill: currentColor;overflow: hidden;" viewBox="0 0 1024 1024" version="1.1" xmlns="http://www.w3.org/2000/svg"><path d="M219.428571 950.857143h512-512z m658.285715-146.285714h-73.142857V219.428571a73.142857 73.142857 0 0 0-73.142858-73.142857H219.428571V73.142857h512a146.285714 146.285714 0 0 1 146.285715 146.285714v585.142858zM73.142857 804.571429V219.428571v585.142858z" fill="#999999" /><path d="M219.428571 219.428571h365.714286a146.285714 146.285714 0 0 1 146.285714 146.285715v438.857143a146.285714 146.285714 0 0 1-146.285714 146.285714H219.428571a146.285714 146.285714 0 0 1-146.285714-146.285714V365.714286a146.285714 146.285714 0 0 1 146.285714-146.285715z m0 73.142858a73.142857 73.142857 0 0 0-73.142857 73.142857v438.857143a73.142857 73.142857 0 0 0 73.142857 73.142857h365.714286a73.142857 73.142857 0 0 0 73.142857-73.142857V365.714286a73.142857 73.142857 0 0 0-73.142857-73.142857H219.428571z" fill="#999999" /><path d="M219.428571 365.714286m36.571429 0l292.571429 0q36.571429 0 36.571428 36.571428l0 0q0 36.571429-36.571428 36.571429l-292.571429 0q-36.571429 0-36.571429-36.571429l0 0q0-36.571429 36.571429-36.571428Z" fill="#999999" /><path d="M219.428571 512m36.571429 0l292.571429 0q36.571429 0 36.571428 36.571429l0 0q0 36.571429-36.571428 36.571428l-292.571429 0q-36.571429 0-36.571429-36.571428l0 0q0-36.571429 36.571429-36.571429Z" fill="#999999" /><path d="M219.428571 658.285714m36.571429 0l146.285714 0q36.571429 0 36.571429 36.571429l0 0q0 36.571429-36.571429 36.571428l-146.285714 0q-36.571429 0-36.571429-36.571428l0 0q0-36.571429 36.571429-36.571429Z" fill="#999999" /></svg>