<svg class="svg-icon" style="width: 1.0009765625em; height: 1em;vertical-align: middle;fill: currentColor;overflow: hidden;" viewBox="0 0 1025 1024" version="1.1" xmlns="http://www.w3.org/2000/svg"><path d="M512.449424 512.649171m-511.350819 0a511.350819 511.350819 0 1 0 1022.701639 0 511.350819 511.350819 0 1 0-1022.701639 0Z" fill="#CCCCCC" /><path d="M423.961763 729.174283l-8.189603-8.788842c-11.185799-12.084658-10.486687-31.160441 1.597971-42.34624l339.069538-314.001362c12.084658-11.185799 31.160441-10.486687 42.34624 1.597971l8.189602 8.788843c11.185799 12.084658 10.486687 31.160441-1.597971 42.346239L466.308003 730.772255c-12.084658 11.185799-31.060567 10.486687-42.34624-1.597972z" fill="#FFFFFF" /><path d="M465.509017 716.590259l-9.388081 7.490491c-12.883644 10.28694-31.859553 8.189603-42.146494-4.694041L258.671606 524.833702c-10.28694-12.883644-8.189603-31.859553 4.694041-42.146493l9.388081-7.490491c12.883644-10.28694 31.859553-8.189603 42.146493 4.694041l155.302837 194.553007c10.28694 12.883644 8.189603 31.859553-4.694041 42.146493z" fill="#FFFFFF" /></svg>